<?xml version="1.0" encoding="UTF-8" standalone="no"?><!DOCTYPE svg PUBLIC "-//W3C//DTD SVG 1.1//EN" "http://www.w3.org/Graphics/SVG/1.1/DTD/svg11.dtd"><svg width="100%" height="100%" viewBox="0 0 439 439" version="1.1" xmlns="http://www.w3.org/2000/svg" xmlns:xlink="http://www.w3.org/1999/xlink" xml:space="preserve" xmlns:serif="http://www.serif.com/" style="fill-rule:evenodd;clip-rule:evenodd;stroke-linejoin:round;stroke-miterlimit:1.41421;"><path d="M403.465,0c19.364,0 35.084,15.721 35.084,35.084l0,368.381c0,19.363 -15.721,35.084 -35.084,35.084l-368.381,0c-19.363,0 -35.084,-15.721 -35.084,-35.084l0,-368.381c0,-19.363 15.72,-35.084 35.084,-35.084l368.381,0Zm-118.68,433.183l0,-0.011c-3.204,0.056 -5.673,-0.75 -7.408,-2.413c-2.382,-2.283 -3.572,-5.14 -3.572,-8.562l0,-60.237c0,-18.462 -4.948,-31.977 -14.842,-40.539c10.848,-1.142 20.601,-2.86 29.263,-5.146c8.658,-2.286 17.608,-5.996 26.84,-11.136c9.23,-5.136 16.94,-11.465 23.131,-18.986c6.184,-7.522 11.225,-17.508 15.125,-29.979c3.895,-12.469 5.853,-26.788 5.853,-42.966c0,-23.03 -7.523,-42.637 -22.559,-58.817c7.046,-17.318 6.283,-36.731 -2.279,-58.24c-5.332,-1.715 -13.046,-0.667 -23.134,3.138c-10.082,3.807 -18.843,7.995 -26.262,12.565l-10.849,6.849c-17.706,-4.947 -35.981,-7.421 -54.823,-7.421c-18.842,0 -37.113,2.474 -54.818,7.421c-3.046,-2.09 -7.089,-4.667 -12.135,-7.708c-5.046,-3.042 -12.99,-6.711 -23.84,-10.994c-10.848,-4.281 -19.034,-5.568 -24.554,-3.853c-8.376,21.508 -9.041,40.922 -1.997,58.24c-15.037,16.18 -22.557,35.782 -22.557,58.817c0,16.178 1.951,30.452 5.852,42.826c3.899,12.369 8.897,22.365 14.987,29.979c6.089,7.61 13.75,13.989 22.985,19.126c9.23,5.144 18.177,8.854 26.835,11.14c8.663,2.283 18.416,4 29.264,5.14c-7.611,6.851 -12.275,16.652 -13.988,29.41c-3.999,1.902 -8.282,3.333 -12.847,4.285c-4.57,0.947 -9.994,1.423 -16.274,1.423c-6.28,0 -12.515,-2.043 -18.699,-6.136c-6.189,-4.093 -11.466,-10.041 -15.846,-17.847c-3.617,-6.088 -8.232,-11.036 -13.846,-14.842c-5.617,-3.809 -10.326,-6.088 -14.133,-6.851l-5.708,-0.853c-3.999,0 -6.755,0.417 -8.28,1.276c-1.525,0.859 -1.999,1.954 -1.427,3.289c0.571,1.334 1.426,2.666 2.568,3.997c1.143,1.331 2.379,2.478 3.711,3.429l1.999,1.431c4.187,1.903 8.326,5.517 12.419,10.848c4.093,5.326 7.089,10.185 8.992,14.559l2.855,6.57c2.475,7.228 6.662,13.083 12.56,17.556c5.901,4.473 12.276,7.328 19.13,8.559c6.851,1.242 13.468,1.91 19.842,1.999c6.377,0.092 11.659,-0.233 15.846,-1l6.567,-1.136c0,7.227 0.046,15.697 0.144,25.406c0.095,9.709 0.144,14.846 0.144,15.417c0,3.422 -1.236,6.28 -3.711,8.562c-1.768,1.629 -4.216,2.436 -7.346,2.416l0,0l130.822,0Z"/></svg>