<?xml version="1.0" encoding="UTF-8" standalone="no"?><!DOCTYPE svg PUBLIC "-//W3C//DTD SVG 1.1//EN" "http://www.w3.org/Graphics/SVG/1.1/DTD/svg11.dtd"><svg width="100%" height="100%" viewBox="0 0 512 512" version="1.1" xmlns="http://www.w3.org/2000/svg" xmlns:xlink="http://www.w3.org/1999/xlink" xml:space="preserve" xmlns:serif="http://www.serif.com/" style="fill-rule:evenodd;clip-rule:evenodd;stroke-linejoin:round;stroke-miterlimit:1.41421;"><g><path d="M412.505,0c-0.779,0.007 -1.57,0.077 -2.367,0.215l-19.696,3.439c-7.77,1.357 -12.994,8.784 -11.644,16.554l30.389,175.065c1.19,6.866 7.113,11.851 14.072,11.851c0.818,0 1.642,-0.07 2.472,-0.217l19.696,-3.439c7.77,-1.357 12.994,-8.784 11.644,-16.555l-30.391,-175.059c-1.18,-6.821 -7.067,-11.798 -13.931,-11.854l58.291,0c22.607,0 40.96,18.354 40.96,40.96l0,430.08c0,22.606 -18.353,40.96 -40.96,40.96l-403.26,0c0,0 80.235,0 160.472,-0.034c40.124,-0.017 80.242,-0.046 110.329,-0.086c15.044,-0.017 27.587,-0.04 36.359,-0.069c16.646,-0.051 16.646,-0.051 16.646,-2.872l0.28,-10.002l0,-187.304c0,-7.886 -6.419,-14.306 -14.305,-14.306l-11.135,0c-7.886,0 -14.305,6.42 -14.305,14.306l0,152.33c0,4.733 -3.851,8.583 -8.585,8.583l-240.21,0c-4.732,0 -8.583,-3.85 -8.583,-8.583l0,-152.33c0,-7.886 -6.42,-14.306 -14.305,-14.306l-11.417,0c-7.885,0 -14.305,6.414 -14.305,14.306c0,21.824 0.011,71.138 0.051,114.986c0.018,21.923 0.047,42.488 0.086,57.571c0.069,27.357 0.069,27.535 2.873,27.535l0.051,0l9.922,0.275l-26.739,0c-22.606,0 -40.96,-18.354 -40.96,-40.96l0,-430.08c0,-22.606 18.353,-40.96 40.96,-40.96l371.545,0Zm-280.848,444.226l0.022,0l177.565,-0.252c7.885,-0.012 14.305,-6.438 14.305,-14.322l0,-19.913c0,-7.88 -6.408,-14.294 -14.305,-14.294l-177.565,0.246c-7.885,0.012 -14.305,6.438 -14.305,14.323l0,19.924c0,7.88 6.409,14.288 14.283,14.288Zm1.413,-72.66l177.09,16.331c0.447,0.04 0.886,0.058 1.321,0.058c7.439,0 13.528,-5.596 14.174,-13.012l1.711,-19.725c0.681,-7.85 -5.15,-14.82 -12.995,-15.547l-176.809,-16.326c-8.034,-0.743 -14.837,5.088 -15.571,12.927l-1.841,19.735c-0.356,3.805 0.789,7.52 3.227,10.455c2.442,2.942 5.888,4.755 9.693,5.104Zm11.37,-88.899l171.538,45.96c1.214,0.326 2.461,0.492 3.709,0.492c6.454,0 12.136,-4.367 13.802,-10.609l5.15,-19.284c2.037,-7.622 -2.507,-15.479 -10.122,-17.522l-171.539,-45.966c-7.496,-2.008 -15.525,2.667 -17.511,10.122l-5.149,19.289c-2.038,7.613 2.505,15.475 10.122,17.518Zm33.52,-100.928l152.965,90.422c2.203,1.305 4.721,1.997 7.273,1.997c5.042,0 9.768,-2.689 12.326,-7.021l10.169,-17.166c1.944,-3.291 2.5,-7.135 1.55,-10.838c-0.95,-3.697 -3.285,-6.809 -6.575,-8.75l-152.965,-90.427c-6.558,-3.879 -15.742,-1.493 -19.604,5.025l-10.162,17.167c-1.946,3.29 -2.501,7.141 -1.551,10.837c0.949,3.702 3.29,6.809 6.574,8.754Zm184.374,43.128c2.667,3.903 7.078,6.226 11.805,6.226c2.89,0 5.682,-0.864 8.074,-2.507l16.273,-11.158c6.501,-4.458 8.183,-13.383 3.754,-19.908l-99.966,-146.933c-4.286,-6.294 -13.555,-8.063 -19.855,-3.725l-16.584,11.416c-6.494,4.469 -8.16,13.396 -3.713,19.907l100.212,146.682Z"/></g></svg>