<?xml version="1.0" encoding="UTF-8" standalone="no"?><!DOCTYPE svg PUBLIC "-//W3C//DTD SVG 1.1//EN" "http://www.w3.org/Graphics/SVG/1.1/DTD/svg11.dtd"><svg width="100%" height="100%" viewBox="0 0 513 513" version="1.1" xmlns="http://www.w3.org/2000/svg" xmlns:xlink="http://www.w3.org/1999/xlink" xml:space="preserve" xmlns:serif="http://www.serif.com/" style="fill-rule:evenodd;clip-rule:evenodd;stroke-linejoin:round;stroke-miterlimit:1.41421;"><circle cx="413.635" cy="93.885" r="16.073"/><path d="M419.1,0c47.419,0 93.9,47.194 93.9,93.9l0,325.2c0,49.721 -44.68,93.899 -93.9,93.9l-325.2,0c-49.452,0 -93.9,-45.664 -93.9,-93.9l0,-325.2c0,-47.324 48.142,-93.9 93.9,-93.9l325.2,0Zm-162.6,103.06c-84.608,0 -153.44,68.831 -153.44,153.439c0,84.608 68.832,153.44 153.44,153.44c84.608,0 153.44,-68.832 153.44,-153.44c0,-84.607 -68.831,-153.439 -153.44,-153.439Zm0,273.981c-66.464,0 -120.542,-54.073 -120.542,-120.542c0,-66.464 54.078,-120.541 120.542,-120.541c66.469,0 120.542,54.077 120.542,120.541c0,66.469 -54.073,120.542 -120.542,120.542Zm157.11,-328.475c-25.004,0 -45.34,20.341 -45.34,45.34c0,25.003 20.336,45.343 45.34,45.343c25.002,0 45.344,-20.34 45.344,-45.343c0,-25.003 -20.342,-45.34 -45.344,-45.34Zm0,57.782c-6.859,0 -12.443,-5.583 -12.443,-12.442c0,-6.863 5.584,-12.441 12.443,-12.441c6.862,0 12.445,5.578 12.445,12.441c0,6.859 -5.583,12.442 -12.445,12.442Z" style="fill-rule:nonzero;"/></svg>