<?xml version="1.0" encoding="UTF-8" standalone="no"?><!DOCTYPE svg PUBLIC "-//W3C//DTD SVG 1.1//EN" "http://www.w3.org/Graphics/SVG/1.1/DTD/svg11.dtd"><svg width="100%" height="100%" viewBox="0 0 439 439" version="1.1" xmlns="http://www.w3.org/2000/svg" xmlns:xlink="http://www.w3.org/1999/xlink" xml:space="preserve" xmlns:serif="http://www.serif.com/" style="fill-rule:evenodd;clip-rule:evenodd;stroke-linejoin:round;stroke-miterlimit:1.41421;"><path d="M430.5,8c-16.077,-16.081 -51.537,-8 -74.185,-8l-274.087,0c-22.648,0 -58.144,-8.081 -74.228,8c-16.081,16.084 -7.997,51.576 -7.997,74.225l0,274.084c0,22.647 -8.084,58.107 7.997,74.191c16.084,16.084 51.58,8.037 74.228,8.037l274.084,0c22.648,0 58.111,8.047 74.188,-8.037c16.084,-16.084 8.033,-51.543 8.033,-74.191l0,-274.084c-0.001,-22.649 8.047,-58.144 -8.033,-74.225Zm-71.341,324.874c-3.997,8.754 -12.99,16.371 -26.977,22.846c-13.99,6.475 -26.413,9.712 -37.265,9.712c-3.046,0 -6.283,-0.235 -9.708,-0.711c-3.426,-0.479 -6.324,-0.952 -8.703,-1.428c-2.378,-0.476 -5.523,-1.331 -9.421,-2.57c-3.905,-1.234 -6.715,-2.189 -8.422,-2.854c-1.718,-0.664 -4.856,-1.854 -9.421,-3.566c-4.569,-1.718 -7.427,-2.765 -8.562,-3.138c-31.215,-11.427 -61.721,-32.028 -91.507,-61.814c-29.786,-29.793 -50.391,-60.292 -61.812,-91.502c-0.378,-1.143 -1.425,-3.999 -3.14,-8.565c-1.712,-4.565 -2.905,-7.708 -3.571,-9.419c-0.662,-1.713 -1.615,-4.521 -2.853,-8.42c-1.237,-3.903 -2.091,-7.041 -2.568,-9.423c-0.478,-2.376 -0.95,-5.277 -1.427,-8.704c-0.476,-3.427 -0.713,-6.667 -0.713,-9.71c0,-10.85 3.237,-23.269 9.71,-37.259c6.472,-13.988 14.084,-22.981 22.841,-26.979c10.088,-4.189 19.7,-6.283 28.837,-6.283c2.091,0 3.616,0.192 4.565,0.572c0.953,0.385 2.524,2.094 4.714,5.14c2.19,3.046 4.568,6.899 7.137,11.563c2.57,4.665 5.092,9.186 7.566,13.562c2.474,4.377 4.854,8.705 7.139,12.991c2.284,4.279 3.711,6.995 4.281,8.133c0.571,0.957 1.809,2.762 3.711,5.429c1.902,2.663 3.333,5.039 4.283,7.135c0.95,2.094 1.427,4.093 1.427,5.996c0,2.859 -1.953,6.331 -5.854,10.42c-3.903,4.093 -8.186,7.854 -12.85,11.281c-4.664,3.427 -8.945,7.092 -12.847,10.994c-3.899,3.899 -5.852,7.087 -5.852,9.562c0,1.333 0.333,2.902 1,4.71c0.666,1.812 1.285,3.287 1.856,4.427c0.571,1.141 1.477,2.76 2.712,4.856c1.237,2.096 2.048,3.427 2.426,3.999c10.467,18.843 22.508,35.07 36.114,48.681c13.612,13.613 29.836,25.648 48.682,36.117c0.567,0.384 1.902,1.191 4.004,2.43c2.091,1.232 3.713,2.136 4.853,2.707c1.143,0.571 2.614,1.191 4.425,1.852c1.811,0.664 3.381,0.999 4.719,0.999c3.036,0 7.225,-3.138 12.56,-9.418c5.328,-6.286 10.756,-12.518 16.276,-18.705c5.516,-6.181 9.985,-9.274 13.418,-9.274c1.902,0 3.897,0.473 5.999,1.424c2.095,0.951 4.469,2.382 7.132,4.284c2.669,1.91 4.476,3.142 5.428,3.721l15.125,8.271c10.089,5.332 18.511,10.041 25.27,14.134c6.759,4.093 10.424,6.899 10.996,8.419c0.379,0.951 0.564,2.478 0.564,4.572c-0.007,9.128 -2.102,18.741 -6.297,28.803Z" style="fill-rule:nonzero;"/></svg>